<?xml version="1.0" encoding="utf-8" ?>
<svg baseProfile="full" height="300mm" version="1.1" viewBox="0,0,200,300" width="200mm" xmlns="http://www.w3.org/2000/svg" xmlns:ev="http://www.w3.org/2001/xml-events" xmlns:xlink="http://www.w3.org/1999/xlink"><defs /><rect fill="#222222" height="300" width="200" x="0" y="0" /><text fill="#FFFFFF" style="font-size:12px; font-family:Arial; font-weight:bold;" x="10" y="20">Over 2km Runs</text><text fill="#FFFFFF" style="font-size:4px; font-family:Arial" x="10" y="280">Runner</text><text fill="#FFFFFF" style="font-size:9px; font-family:Arial" x="10" y="290">yang</text><text fill="#FFFFFF" style="font-size:4px; font-family:Arial" x="65" y="280">SPECIAL TRACKS</text><rect fill="yellow" height="2.6" width="2.6" x="65" y="283" /><text fill="#FFFFFF" style="font-size:3px; font-family:Arial" x="70" y="285.5">Over 20.0 km</text><rect fill="red" height="2.6" width="2.6" x="65" y="287" /><text fill="#FFFFFF" style="font-size:3px; font-family:Arial" x="70" y="289.5">Over 40.0 km</text><text fill="#FFFFFF" style="font-size:4px; font-family:Arial" x="120" y="280">STATISTICS</text><text fill="#FFFFFF" style="font-size:3px; font-family:Arial" x="120" y="285">Number: 1</text><text fill="#FFFFFF" style="font-size:3px; font-family:Arial" x="120" y="290">Weekly: 1.0</text><text fill="#FFFFFF" style="font-size:3px; font-family:Arial" x="141" y="285">Total: 11.1 km</text><text fill="#FFFFFF" style="font-size:3px; font-family:Arial" x="141" y="290">Avg: 11.1 km</text><text fill="#FFFFFF" style="font-size:3px; font-family:Arial" x="167" y="285">Min: 11.1 km</text><text fill="#FFFFFF" style="font-size:3px; font-family:Arial" x="167" y="290">Max: 11.1 km</text><polyline fill="none" points="46.29108873941004,231.0 44.33358855731785,228.45392363285646 33.81202507391572,229.72696218639612 29.652337186969817,209.99478154466487 27.205461957491934,199.49209684785455 37.97171296272427,197.26424817042425 50.940151672810316,195.67292630136944 60.48296506330371,194.3998679742217 66.84484065603465,194.71813262463547 78.5898417532444,194.0816032772418 89.11140523478389,194.0816032772418 105.75015678722411,194.0816032772418 115.04828265402466,195.35466178925708 116.2717202687636,190.26242330530658 115.78234522324055,181.03271090844646 113.82484504021704,177.85004245094024 114.31422008574009,174.6673693738412 117.0057828379795,171.48469167598523 120.67609567940235,169.89335109456442 122.63359586149454,173.71256654988974 124.101720998995,182.942309765378 128.50609641056508,195.9911907671485 133.3998468676582,196.30945518799126 145.87891053128988,191.21721892245114 151.26203603297472,193.12680890830234 159.09203676413745,193.12680890830234 170.59235033672303,198.53730483469553 172.79453804250807,194.71813262463547 170.59235033672303,187.7162996295374 166.92203749530017,183.57884234795347 162.5176620837301,181.66924404539168 162.02828703913838,172.75776331033558 164.96453731227666,163.2097080387175 163.00703713018447,150.47890298999846 160.07078685518354,143.79520074627362 157.13453658204526,137.7480240149889 161.04953694716096,127.24499320448376 162.5176620837301,119.9246692461893 165.69859988056123,106.55705807567574 163.00703713018447,90.32484921254218 160.5601619016379,74.0925201580394 156.4004740137607,69.95484843035229 151.26203603297472,74.72908434527926 149.30453585088253,79.18502848618664 144.90016044024378,80.139872481348 132.17640925198793,76.95705754868686 124.34640852268785,84.27752498467453 116.02703274600208,91.5979679771699 117.73984540626407,110.37638386921026 118.47390797454864,120.56122012622654 119.69734558835626,137.42975109280087 121.89953329414129,158.11739489086904 122.38890834059566,175.62217178195715 125.32515861373395,190.58068855758756 128.50609641056508,196.30945518799126 140.74047255143523,192.4902790968772 152.24078612588346,194.0816032772418 158.8473492404446,194.3998679742217 168.87953767739236,199.17383288918063 172.30516299698502,196.9459838892799 170.34766281489283,186.7615024880506 163.74109969753772,182.942309765378 161.78359951544553,173.39429884892888 164.2304747439921,164.16451543732546 164.2304747439921,154.2981522672344 160.5601619016379,144.4317446949426 158.35797419585288,139.97593317274004 160.80484942533076,128.1998162670061 164.71984978951514,116.42363610351458 165.69859988056123,98.91838652314618 163.00703713018447,85.86892771418206 162.27297456003726,79.82159119588323 159.82609933335334,71.22797902463935 154.93234887626022,71.22797902463935 150.03859842009842,79.18502848618664 146.36828557681292,81.4129971601069 140.25109750591218,78.54846559232101 131.44234668463469,76.00221216771752 126.79328375123441,81.09471605997533 117.49515788350254,89.051729707513 116.51640779152513,100.19150029728189 117.2504703598097,118.65156693197787 118.96328302007169,135.52011259342544 119.9420331120491,140.61247823014855 121.89953329414129,153.97988174878992 122.38890834059566,172.43949547084048 123.61234595440328,183.57884234795347 127.52734631858766,195.03639723104425 136.33609714079648,194.0816032772418 146.12359805498272,191.85374910291284 157.13453658204526,194.3998679742217 164.96453731227666,198.21904073818587 170.83703786041588,198.85556888440624 172.06047547515482,192.4902790968772 167.90078758634627,183.57884234795347 162.27297456003726,177.21350820618682 161.04953694716096,171.80295965378173 164.71984978951514,165.43759132153355 164.96453731227666,159.39047428639606 165.2092248359695,153.02506991429254 162.76234960742295,148.56927585764788 158.8473492404446,139.33938792953268 161.04953694716096,127.56326760421507 161.78359951544553,120.24294470972382 164.71984978951514,111.64949099021032 163.98578722123057,91.5979679771699 160.31547437794507,71.86454404448159 156.4004740137607,70.273131148424 150.772660988383,79.18502848618664 147.1023481450975,81.09471605997533 139.5170349376276,77.91190251405351 129.4848465025425,77.91190251405351 123.12297090888023,85.55064726108685 116.02703274600208,92.23452708125114 116.51640779152513,107.51189014781266 118.22922045085579,127.56326760421507 118.47390797454864,132.65565172443166 121.1654707249254,146.65964706009254 122.38890834059566,164.16451543732546 122.87828338518739,182.62404340389185 125.81453366018832,195.03639723104425 129.97422154806554,197.58251240616664 140.98516007512808,193.44507374358363 150.772660988383,194.0816032772418 162.5176620837301,197.58251240616664 171.32641290593892,199.17383288918063 170.59235033672303,186.7615024880506 163.00703713018447,181.35097750043496 164.71984978951514,165.43759132153355 165.45391235873103,153.97988174878992 159.82609933335334,141.56729547004215 157.37922410480678,134.5652927197516 161.78359951544553,122.47087165666744 165.45391235873103,112.92259736987762 165.45391235873103,97.96355070732534 161.29422446992248,79.18502848618664 158.35797419585288,69.95484843035229 153.21953621692955,72.81939122732729 150.28328594285995,78.8667470626533 145.38953548576683,80.7764349130448 141.71922264341265,80.7764349130448 134.13390943594277,76.63877580082044 129.24015897884965,78.23018407612108 116.2717202687636,91.27968835365027 115.04828265402466,100.8280569058843 117.49515788350254,120.87949549616314 119.20797054283321,133.29219890781678 120.67609567940235,147.93273310968652 122.63359586149454,159.07220450695604 122.63359586149454,168.62027779826894 123.36765843071043,181.35097750043496 127.03797127306461,195.9911907671485 134.37859695777297,196.9459838892799 145.87891053128988,191.85374910291284 156.88984905928373,193.12680890830234 169.61360024660826,199.17383288918063 172.30516299698502,194.71813262463547 169.61360024660826,184.85190695803612 165.94328740332276,183.2605760791339 164.71984978951514,179.1231103891041 161.78359951544553,172.75776331033558 164.96453731227666,159.70874401996844 163.251724652946,150.47890298999846 160.31547437794507,142.52211229479872 159.3367242878303,130.10946114407852 164.4751622667536,116.42363610351458 164.71984978951514,98.28182935924269 162.27297456003726,76.32049400731921 157.37922410480678,69.95484843035229 151.7514110794291,74.72908434527926 148.0810982370749,81.4129971601069 143.92141034919769,81.09471605997533 138.04890980012715,81.7312782148365 133.3998468676582,77.91190251405351 124.101720998995,83.95924430084415 115.78234522324055,91.5979679771699 115.78234522324055,100.19150029728189 117.2504703598097,111.96776765398681 118.47390797454864,124.38052152376622 119.69734558835626,137.42975109280087 120.18672063481063,141.56729547004215 122.14422081690282,155.2529635464307 121.1654707249254,158.11739489086904 122.14422081690282,167.34720376087353 125.32515861373395,182.3057769970037 127.28265879675746,194.3998679742217 130.95297163818032,196.62771956133656 140.49578502960503,192.80854402575642 151.01734851114452,193.44507374358363 164.96453731227666,198.21904073818587 171.0817253831774,197.26424817042425 171.8157879523933,190.58068855758756 166.18797492608428,182.942309765378 164.2304747439921,180.07791085611098 162.5176620837301,172.12122758477926 165.94328740332276,156.52604460599832 162.5176620837301,149.20581842004322 158.11328667309135,138.38456971966662 161.29422446992248,126.92671875841916 164.4751622667536,118.3332912386395 165.2092248359695,105.92050312831998 165.45391235873103,97.64527200930752 161.538911992684,78.54846559232101 159.09203676413745,70.59141382016242 154.4429738316685,72.5011088794563 144.90016044024378,80.7764349130448 132.17640925198793,76.63877580082044 122.87828338518739,84.59580562263727 115.04828265402466,91.91624755226076 114.80359513312578,102.10116957081482 117.73984540626407,116.10536008654162 118.96328302007169,126.60844426602125 120.43140815664083,142.2038400657475 122.14422081690282,162.5731695422437 122.14422081690282,175.30390435899608 125.08047109097242,193.12680890830234 129.4848465025425,196.9459838892799 134.37859695777297,196.62771956133656 143.92141034919769,192.4902790968772 149.05984832718968,193.12680890830234 161.538911992684,196.30945518799126 169.85828776936978,199.49209684785455 172.06047547515482,195.03639723104425 168.1454751091078,184.53364087454975 164.4751622667536,183.2605760791339 163.49641217570752,178.80484347348101 161.78359951544553,171.48469167598523 164.96453731227666,155.2529635464307 162.02828703913838,148.56927585764788 157.13453658204526,138.38456971966662 159.82609933335334,128.518090528436 162.5176620837301,121.1977708209306 164.71984978951514,112.92259736987762 164.96453731227666,98.28182935924269 161.78359951544553,78.8667470626533 158.8473492404446,69.95484843035229 153.46422373875976,72.5011088794563 151.26203603297472,77.59362090495415 145.87891053128988,80.45815371954814 139.76172246132046,77.91190251405351 131.44234668463469,76.95705754868686 116.76109531428665,86.1872081218753 114.80359513312578,91.27968835365027 117.98453292902559,106.55705807567574 118.96328302007169,126.29016972705722 121.1654707249254,145.3865602724254 123.12297090888023,164.8010534713976 122.63359586149454,176.25870648981072 124.101720998995,186.7615024880506 127.03797127306461,195.35466178925708 137.07015971001238,194.71813262463547 150.28328594285995,193.12680890830234 158.11328667309135,195.03639723104425 161.538911992684,195.9911907671485 165.94328740332276,197.58251240616664 169.61360024660826,199.17383288918063 172.06047547515482,191.85374910291284 168.87953767739236,184.85190695803612 164.2304747439921,183.2605760791339 161.538911992684,174.6673693738412 164.71984978951514,166.0741289863363 164.71984978951514,153.97988174878992 161.29422446992248,147.29619017825462 157.37922410480678,138.38456971966662 162.5176620837301,120.56122012622654 165.94328740332276,114.19570301100612 165.69859988056123,98.91838652314618 162.02828703913838,79.50330986455083 158.35797419585288,69.0 152.24078612588346,73.45595578523353 148.57047328259796,80.7764349130448 133.6445343894884,76.63877580082044 128.99547145608813,78.23018407612108 118.47390797454864,87.4603292895481 115.53765769954771,93.18936539138667 117.2504703598097,107.83016741229221 118.22922045085579,123.74397175270133 117.98453292902559,129.15463891276158 120.43140815664083,142.52211229479872 122.87828338518739,160.98182249139063 121.89953329414129,174.34910181164742 122.63359586149454,188.98936183704063 124.59109604544938,193.76333853416145 133.15515934396535,196.62771956133656 142.45328521169722,191.85374910291284 151.9960986021906,193.76333853416145 165.45391235873103,198.21904073818587 169.85828776936978,199.17383288918063 172.06047547515482,195.9911907671485 168.87953767739236,185.17017299472354 163.251724652946,183.2605760791339 162.76234960742295,173.71256654988974 164.96453731227666,154.93469316675328 162.76234960742295,149.52408963255584 158.35797419585288,140.29420572402887 158.8473492404446,133.61047242977656 161.29422446992248,125.01707110903226 164.96453731227666,111.33121427870356 165.94328740332276,96.69043564028107 161.78359951544553,76.63877580082044 158.8473492404446,69.6365656668786" stroke="#4DD2FF" stroke-linecap="round" stroke-linejoin="round" stroke-width="0.5"><title>2022-06-08 11.1km</title><desc>9223370382181898110</desc></polyline></svg>